<svg width="52" height="52" viewBox="0 0 52 52" fill="none" xmlns="http://www.w3.org/2000/svg">
<g clip-path="url(#clip0_53_87)">
<path d="M47.0492 39.7865C44.5674 42.7955 41.3194 45.0788 37.6479 46.3954C33.9764 47.712 30.0176 48.0131 26.1892 47.2669C22.3608 46.5207 18.8049 44.7549 15.8966 42.1558C12.9883 39.5568 10.8356 36.2208 9.6655 32.5H32.5C33.0746 32.5 33.6257 32.2718 34.0321 31.8654C34.4384 31.4591 34.6667 30.908 34.6667 30.3334C34.6667 29.7587 34.4384 29.2076 34.0321 28.8013C33.6257 28.395 33.0746 28.1667 32.5 28.1667H8.77717C8.62983 26.726 8.62983 25.2741 8.77717 23.8334H32.5C33.0746 23.8334 33.6257 23.6051 34.0321 23.1988C34.4384 22.7924 34.6667 22.2413 34.6667 21.6667C34.6667 21.0921 34.4384 20.541 34.0321 20.1346C33.6257 19.7283 33.0746 19.5 32.5 19.5H9.6655C10.8356 15.7793 12.9883 12.4433 15.8966 9.84426C18.8049 7.2452 22.3608 5.4794 26.1892 4.73321C30.0176 3.98702 33.9764 4.2881 37.6479 5.60469C41.3194 6.92128 44.5674 9.20455 47.0492 12.2135C47.2304 12.4329 47.4531 12.6144 47.7045 12.7478C47.9559 12.8811 48.2311 12.9636 48.5144 12.9905C48.7977 13.0175 49.0835 12.9884 49.3555 12.9049C49.6275 12.8214 49.8805 12.6851 50.0998 12.5039C50.3192 12.3226 50.5007 12.1 50.634 11.8486C50.7674 11.5972 50.8499 11.322 50.8768 11.0387C50.9038 10.7554 50.8747 10.4696 50.7912 10.1975C50.7077 9.92551 50.5714 9.67258 50.3902 9.45321C47.3409 5.7575 43.3289 2.97715 38.7979 1.41963C34.2668 -0.137888 29.3933 -0.411888 24.7162 0.627936C20.0391 1.66776 15.7408 3.98089 12.2965 7.31151C8.85216 10.6421 6.39614 14.8605 5.2 19.5H2.16667C1.59203 19.5 1.04093 19.7283 0.634602 20.1346C0.228273 20.541 0 21.0921 0 21.6667C0 22.2413 0.228273 22.7924 0.634602 23.1988C1.04093 23.6051 1.59203 23.8334 2.16667 23.8334H4.44383C4.38317 24.5505 4.33333 25.2677 4.33333 26C4.33333 26.7324 4.38317 27.4495 4.44383 28.1667H2.16667C1.59203 28.1667 1.04093 28.395 0.634602 28.8013C0.228273 29.2076 0 29.7587 0 30.3334C0 30.908 0.228273 31.4591 0.634602 31.8654C1.04093 32.2718 1.59203 32.5 2.16667 32.5H5.2C6.39479 37.142 8.85066 41.3628 12.2958 44.6954C15.7409 48.0281 20.041 50.3424 24.7201 51.3824C29.3991 52.4225 34.2747 52.1476 38.8072 50.5881C43.3397 49.0287 47.3523 46.2456 50.401 42.5469C50.767 42.1038 50.9421 41.5335 50.8876 40.9614C50.8332 40.3893 50.5537 39.8623 50.1107 39.4962C49.6676 39.1302 49.0973 38.9551 48.5252 39.0096C47.9531 39.064 47.426 39.3435 47.06 39.7865H47.0492Z" fill="url(#paint0_linear_53_87)"/>
</g>
<defs>
<linearGradient id="paint0_linear_53_87" x1="25.4487" y1="0.00881958" x2="25.4487" y2="52.0013" gradientUnits="userSpaceOnUse">
<stop stop-color="#EC48C1"/>
<stop offset="1" stop-color="#FED860"/>
</linearGradient>
<clipPath id="clip0_53_87">
<rect width="52" height="52" fill="white"/>
</clipPath>
</defs>
</svg>
