<svg width="15" height="15" viewBox="0 0 15 15" fill="none" xmlns="http://www.w3.org/2000/svg">
<g clip-path="url(#clip0_67_37)">
<path d="M14.5443 5.88686C13.575 4.30811 11.37 1.65936 7.49997 1.65936C3.62997 1.65936 1.42497 4.30811 0.455596 5.88686C0.155926 6.37155 -0.00280762 6.93014 -0.00280762 7.49999C-0.00280762 8.06984 0.155926 8.62842 0.455596 9.11311C1.42497 10.6919 3.62997 13.3406 7.49997 13.3406C11.37 13.3406 13.575 10.6919 14.5443 9.11311C14.844 8.62842 15.0028 8.06984 15.0028 7.49999C15.0028 6.93014 14.844 6.37155 14.5443 5.88686ZM13.4787 8.45874C12.6462 9.81249 10.7618 12.0906 7.49997 12.0906C4.2381 12.0906 2.35372 9.81249 1.52122 8.45874C1.34318 8.17064 1.24888 7.83866 1.24888 7.49999C1.24888 7.16132 1.34318 6.82933 1.52122 6.54124C2.35372 5.18749 4.2381 2.90936 7.49997 2.90936C10.7618 2.90936 12.6462 5.18499 13.4787 6.54124C13.6568 6.82933 13.7511 7.16132 13.7511 7.49999C13.7511 7.83866 13.6568 8.17064 13.4787 8.45874Z" fill="#000000"/>
<path d="M7.5 4.375C6.88193 4.375 6.27775 4.55828 5.76384 4.90166C5.24994 5.24504 4.8494 5.7331 4.61288 6.30411C4.37635 6.87513 4.31447 7.50347 4.43505 8.10966C4.55563 8.71585 4.85325 9.27267 5.29029 9.70971C5.72733 10.1467 6.28415 10.4444 6.89034 10.565C7.49654 10.6855 8.12487 10.6236 8.69589 10.3871C9.26691 10.1506 9.75496 9.75006 10.0983 9.23616C10.4417 8.72225 10.625 8.11807 10.625 7.5C10.624 6.6715 10.2944 5.87722 9.70861 5.29139C9.12278 4.70555 8.3285 4.37599 7.5 4.375ZM7.5 9.375C7.12916 9.375 6.76665 9.26503 6.45831 9.05901C6.14996 8.85298 5.90964 8.56014 5.76773 8.21753C5.62581 7.87492 5.58868 7.49792 5.66103 7.13421C5.73338 6.77049 5.91195 6.4364 6.17418 6.17417C6.4364 5.91195 6.77049 5.73337 7.13421 5.66103C7.49792 5.58868 7.87492 5.62581 8.21753 5.76773C8.56014 5.90964 8.85298 6.14996 9.05901 6.45831C9.26503 6.76665 9.375 7.12916 9.375 7.5C9.375 7.99728 9.17746 8.47419 8.82583 8.82583C8.4742 9.17746 7.99728 9.375 7.5 9.375Z" fill="#000000"/>
</g>
<defs>
<clipPath id="clip0_67_37">
<rect width="15" height="15" fill="white"/>
</clipPath>
</defs>
</svg>
