<svg width="15" height="15" viewBox="0 0 15 15" fill="none" xmlns="http://www.w3.org/2000/svg">
<g clip-path="url(#clip0_67_41)">
<path d="M14.8169 13.9331L14.1438 13.26L13.0625 12.1806L14.8056 10.4375C14.8798 10.3632 14.9341 10.2714 14.9634 10.1705C14.9928 10.0697 14.9963 9.96312 14.9735 9.8606C14.9508 9.75808 14.9026 9.66294 14.8334 9.58396C14.7642 9.50499 14.6762 9.44473 14.5775 9.40874L8.97188 7.375C8.7486 7.29429 8.50694 7.27885 8.2752 7.33048C8.04345 7.3821 7.8312 7.49866 7.66329 7.66651C7.49537 7.83436 7.37873 8.04657 7.32701 8.27829C7.2753 8.51001 7.29064 8.75167 7.37126 8.97499L9.41063 14.5806C9.44644 14.6794 9.50656 14.7675 9.58543 14.8369C9.6643 14.9062 9.75938 14.9546 9.86188 14.9775C9.90644 14.9872 9.95191 14.992 9.99751 14.9919C10.1633 14.9918 10.3222 14.926 10.4394 14.8087L12.1806 13.0625L13.26 14.1419L13.9331 14.815C14.051 14.9288 14.2089 14.9918 14.3728 14.9904C14.5366 14.989 14.6934 14.9233 14.8093 14.8074C14.9252 14.6915 14.9909 14.5347 14.9923 14.3709C14.9937 14.207 14.9307 14.0491 14.8169 13.9312V13.9331ZM10.25 13.2281L8.54751 8.54687L13.2288 10.2494L10.25 13.2281Z" fill="#000000"/>
<path d="M6.25 12.5C5.01387 12.5 3.8055 12.1334 2.77769 11.4467C1.74988 10.7599 0.948804 9.78381 0.475756 8.64178C0.00270803 7.49974 -0.121063 6.24307 0.120095 5.03069C0.361252 3.81831 0.956507 2.70466 1.83059 1.83059C2.70466 0.956507 3.81831 0.361252 5.03069 0.120095C6.24307 -0.121063 7.49974 0.00270803 8.64178 0.475756C9.78381 0.948804 10.7599 1.74988 11.4467 2.77769C12.1334 3.8055 12.5 5.01387 12.5 6.25C12.5 6.41576 12.4342 6.57474 12.3169 6.69195C12.1997 6.80916 12.0408 6.875 11.875 6.875C11.7092 6.875 11.5503 6.80916 11.4331 6.69195C11.3159 6.57474 11.25 6.41576 11.25 6.25C11.25 5.2611 10.9568 4.2944 10.4074 3.47215C9.85794 2.64991 9.07705 2.00904 8.16342 1.63061C7.24979 1.25217 6.24446 1.15315 5.27455 1.34608C4.30465 1.539 3.41373 2.01521 2.71447 2.71447C2.01521 3.41373 1.539 4.30465 1.34608 5.27455C1.15315 6.24446 1.25217 7.24979 1.63061 8.16342C2.00904 9.07705 2.64991 9.85794 3.47215 10.4074C4.2944 10.9568 5.2611 11.25 6.25 11.25C6.41576 11.25 6.57474 11.3159 6.69195 11.4331C6.80916 11.5503 6.875 11.7092 6.875 11.875C6.875 12.0408 6.80916 12.1997 6.69195 12.3169C6.57474 12.4342 6.41576 12.5 6.25 12.5Z" fill="#000000"/>
<path d="M5.05246 9.7625C4.97032 9.76255 4.88898 9.74641 4.81309 9.715C4.24362 9.47848 3.74127 9.10519 3.35051 8.62817C2.95976 8.15115 2.69267 7.58514 2.57289 6.98025C2.45311 6.37537 2.48435 5.75028 2.66383 5.16035C2.8433 4.57041 3.16549 4.03384 3.60185 3.59815C4.0382 3.16246 4.57527 2.8411 5.16547 2.66253C5.75568 2.48395 6.38081 2.45367 6.98552 2.57438C7.59022 2.69508 8.15582 2.96304 8.63224 3.35452C9.10866 3.746 9.48119 4.24893 9.71684 4.81875C9.74987 4.89488 9.7674 4.97683 9.76842 5.05981C9.76945 5.14279 9.75393 5.22515 9.72279 5.30207C9.69164 5.37899 9.64549 5.44894 9.58702 5.50783C9.52856 5.56673 9.45895 5.61339 9.38226 5.64509C9.30557 5.6768 9.22333 5.69292 9.14034 5.6925C9.05736 5.69208 8.97528 5.67515 8.89891 5.64267C8.82254 5.6102 8.7534 5.56285 8.69553 5.50337C8.63766 5.44389 8.59221 5.37348 8.56184 5.29625C8.40437 4.91671 8.15579 4.58184 7.83807 4.32126C7.52036 4.06067 7.14331 3.88242 6.7403 3.80228C6.33728 3.72213 5.92072 3.74256 5.52748 3.86175C5.13424 3.98095 4.77645 4.19523 4.48575 4.48565C4.19506 4.77606 3.98043 5.13366 3.86086 5.52678C3.74129 5.91991 3.72046 6.33645 3.80023 6.73954C3.87999 7.14263 4.05788 7.51985 4.31815 7.83781C4.57843 8.15577 4.91307 8.40468 5.29246 8.5625C5.42616 8.61784 5.53653 8.71785 5.60472 8.84547C5.67291 8.9731 5.6947 9.12043 5.66638 9.26233C5.63806 9.40423 5.56138 9.53191 5.44942 9.62358C5.33746 9.71525 5.19716 9.76524 5.05246 9.765V9.7625Z" fill="#000000"/>
</g>
<defs>
<clipPath id="clip0_67_41">
<rect width="15" height="15" fill="white"/>
</clipPath>
</defs>
</svg>
