<svg width="56" height="56" viewBox="0 0 56 56" fill="none" xmlns="http://www.w3.org/2000/svg">
<g clip-path="url(#clip0_98_44)">
<path d="M18.8976 13.8273L18.9023 13.8227C18.9023 13.8413 18.8976 13.8623 18.8976 13.8273ZM55.8319 55.4353C55.6126 55.7993 55.2276 56 54.8333 56C54.6279 56 54.4203 55.9463 54.2313 55.832C54.1169 55.7643 42.7233 49 27.9999 49C13.2766 49 1.88293 55.7643 1.7686 55.832C1.2156 56.161 0.499266 55.986 0.167933 55.4353C-0.165734 54.8847 0.0115995 54.1683 0.562266 53.8347C0.986933 53.578 9.9516 48.244 22.5586 46.949C23.4616 45.5 30.3309 34.1087 30.3309 23.121C30.3309 21.3127 29.9973 18.1673 29.5073 15.1223L29.4723 15.2273C27.9836 19.5137 24.5139 23.3637 21.9216 25.1277C21.3966 25.4847 20.7993 25.6667 20.1926 25.6667C19.8403 25.6667 19.4856 25.606 19.1403 25.4777C18.1813 25.1277 17.4393 24.311 17.1523 23.2913C16.5876 21.2753 16.1863 18.2187 16.3846 15.344C12.7353 17.2783 9.00193 18.1813 6.3396 18.6013C5.02827 18.8137 3.75427 18.27 2.99827 17.1967C2.27027 16.1607 2.19093 14.8307 2.7976 13.7247C4.28627 11.0087 6.95093 7.19599 11.1929 4.44499C18.5313 -0.305678 27.6569 -0.0723443 28.0396 -0.0513443C28.3009 -0.077011 37.5363 -0.690678 44.8979 4.08332C49.2356 6.89499 51.8979 10.9363 53.3656 13.8297C53.9279 14.938 53.8229 16.2517 53.0926 17.2597C52.4439 18.1557 51.4149 18.669 50.3206 18.669C50.1433 18.669 49.9636 18.655 49.7839 18.627C46.6129 18.1393 41.9369 16.975 37.6669 14.2077C37.1303 13.86 36.6169 13.496 36.1246 13.1227C37.0626 15.89 37.8886 18.788 38.5886 21.7817C40.9779 31.9993 38.7519 43.519 37.8046 47.572C48.0713 49.448 55.0619 53.6083 55.4353 53.8347C55.9859 54.1683 56.1656 54.8847 55.8319 55.4353ZM26.0749 2.33332C23.0719 2.52232 17.2619 3.29699 12.4646 6.40499C8.6286 8.88999 6.20427 12.369 4.84627 14.847C4.59193 15.3137 4.80427 15.7057 4.90927 15.855C5.00027 15.9857 5.34327 16.3987 5.97793 16.2983C8.8946 15.8387 13.1809 14.7607 17.0613 12.2477C21.8003 9.17466 24.7379 4.72732 26.0726 2.33332H26.0749ZM27.3419 4.79266C25.7389 7.37799 22.9833 11.018 18.9023 13.8227C18.9023 13.8063 18.9023 13.7923 18.8976 13.8273C18.4146 16.7557 18.8136 20.5637 19.4016 22.6637C19.4856 22.9647 19.6839 23.1933 19.9429 23.289C20.0736 23.338 20.3326 23.3893 20.6126 23.198C22.5213 21.9007 25.8673 18.5057 27.2719 14.462C28.4573 11.0437 27.9766 7.34532 27.3419 4.79266ZM29.8853 2.25632C31.2059 4.63632 34.1623 9.15366 38.9363 12.2477C42.8586 14.7887 47.1939 15.8643 50.1386 16.317C50.5633 16.3847 50.9599 16.2213 51.2003 15.8853C51.3053 15.7407 51.5223 15.3533 51.2843 14.8797C49.9449 12.243 47.5299 8.56566 43.6286 6.03632C38.7683 2.88632 32.8159 2.32632 29.8853 2.25632ZM36.3183 22.3113C35.2799 17.8687 33.9359 13.5777 32.3749 9.69732C32.3726 9.69032 32.3703 9.68566 32.3749 9.69732C31.5279 8.77799 30.7859 7.86099 30.1466 6.99066C30.1769 7.21466 30.2026 7.44099 30.2283 7.67199C31.4603 11.3703 32.6689 19.565 32.6689 23.121C32.6689 33.0377 27.6103 42.91 25.4123 46.732C26.2616 46.69 27.1249 46.6667 28.0023 46.6667C30.6249 46.6667 33.1356 46.8673 35.4993 47.1987C36.3883 43.4467 38.6306 32.186 36.3206 22.3113H36.3183Z" fill="black"/>
</g>
<defs>
<clipPath id="clip0_98_44">
<rect width="56" height="56" fill="white"/>
</clipPath>
</defs>
</svg>
