<svg width="15" height="15" viewBox="0 0 15 15" fill="none" xmlns="http://www.w3.org/2000/svg">
<g clip-path="url(#clip0_67_55)">
<path d="M6.875 0C4.80688 0 3.125 1.68187 3.125 3.75C3.125 5.81812 4.80688 7.5 6.875 7.5C8.94313 7.5 10.625 5.81812 10.625 3.75C10.625 1.68187 8.94313 0 6.875 0ZM6.875 6.25C5.49625 6.25 4.375 5.12875 4.375 3.75C4.375 2.37125 5.49625 1.25 6.875 1.25C8.25375 1.25 9.375 2.37125 9.375 3.75C9.375 5.12875 8.25375 6.25 6.875 6.25ZM8.73063 9.68813C8.64438 10.0231 8.30125 10.2237 7.96938 10.1375C7.61438 10.0462 7.24563 10 6.875 10C4.46313 10 2.5 11.9625 2.5 14.375C2.5 14.72 2.22063 15 1.875 15C1.52938 15 1.25 14.72 1.25 14.375C1.25 11.2738 3.77313 8.75 6.875 8.75C7.35063 8.75 7.82375 8.80937 8.28063 8.9275C8.615 9.01313 8.81625 9.35437 8.73063 9.68813ZM15 11.875C15 12.9087 14.1588 13.75 13.125 13.75V14.375C13.125 14.72 12.8456 15 12.5 15C12.1544 15 11.875 14.72 11.875 14.375V13.7487H11.7063C11.04 13.7487 10.4181 13.39 10.0838 12.8138C9.91063 12.515 10.0125 12.1325 10.3113 11.9594C10.61 11.7869 10.9925 11.8881 11.165 12.1869C11.2769 12.3794 11.4838 12.4987 11.7063 12.4987L13.125 12.5C13.4694 12.5 13.7494 12.2194 13.7494 11.875C13.7494 11.6388 13.58 11.4388 13.3469 11.4L11.4463 11.0831C10.6075 10.9437 9.99938 10.225 9.99938 9.375C9.99938 8.34125 10.8406 7.5 11.8744 7.5V6.875C11.8744 6.53 12.1538 6.25 12.4994 6.25C12.845 6.25 13.1244 6.53 13.1244 6.875V7.50187H13.2938C13.9581 7.50187 14.58 7.86 14.915 8.43625C15.0888 8.73438 14.9875 9.11687 14.6894 9.29062C14.3906 9.46437 14.0075 9.3625 13.835 9.06437C13.7206 8.86938 13.5188 8.75187 13.2938 8.75187L11.8744 8.75C11.53 8.75 11.25 9.03063 11.25 9.375C11.25 9.61125 11.4194 9.81125 11.6525 9.85L13.5531 10.1669C14.3919 10.3063 15 11.025 15 11.875Z" fill="#000000"/>
</g>
<defs>
<clipPath id="clip0_67_55">
<rect width="15" height="15" fill="white"/>
</clipPath>
</defs>
</svg>
