<svg width="56" height="56" viewBox="0 0 56 56" fill="none" xmlns="http://www.w3.org/2000/svg">
<g clip-path="url(#clip0_53_103)">
<path d="M19.8333 9.33333H15.1667C11.9513 9.33333 9.33333 11.9513 9.33333 15.1667V19.8333C9.33333 23.0487 11.9513 25.6667 15.1667 25.6667H19.8333C23.0487 25.6667 25.6667 23.0487 25.6667 19.8333V15.1667C25.6667 11.9513 23.0487 9.33333 19.8333 9.33333ZM21 19.8333C21 20.4773 20.4773 21 19.8333 21H15.1667C14.5227 21 14 20.4773 14 19.8333V15.1667C14 14.5227 14.5227 14 15.1667 14H19.8333C20.4773 14 21 14.5227 21 15.1667V19.8333ZM36.1667 25.6667H40.8333C44.0487 25.6667 46.6667 23.0487 46.6667 19.8333V15.1667C46.6667 11.9513 44.0487 9.33333 40.8333 9.33333H36.1667C32.9513 9.33333 30.3333 11.9513 30.3333 15.1667V19.8333C30.3333 23.0487 32.9513 25.6667 36.1667 25.6667ZM35 15.1667C35 14.5227 35.5227 14 36.1667 14H40.8333C41.4773 14 42 14.5227 42 15.1667V19.8333C42 20.4773 41.4773 21 40.8333 21H36.1667C35.5227 21 35 20.4773 35 19.8333V15.1667ZM19.8333 30.3333H15.1667C11.9513 30.3333 9.33333 32.9513 9.33333 36.1667V40.8333C9.33333 44.0487 11.9513 46.6667 15.1667 46.6667H19.8333C23.0487 46.6667 25.6667 44.0487 25.6667 40.8333V36.1667C25.6667 32.9513 23.0487 30.3333 19.8333 30.3333ZM21 40.8333C21 41.4773 20.4773 42 19.8333 42H15.1667C14.5227 42 14 41.4773 14 40.8333V36.1667C14 35.5227 14.5227 35 15.1667 35H19.8333C20.4773 35 21 35.5227 21 36.1667V40.8333ZM18.6667 53.6667C18.6667 54.9547 17.6213 56 16.3333 56H11.6667C5.23367 56 0 50.7663 0 44.3333V39.6667C0 38.3787 1.04533 37.3333 2.33333 37.3333C3.62133 37.3333 4.66667 38.3787 4.66667 39.6667V44.3333C4.66667 48.1927 7.80733 51.3333 11.6667 51.3333H16.3333C17.6213 51.3333 18.6667 52.3787 18.6667 53.6667ZM56 39.6667V44.3333C56 50.7663 50.7663 56 44.3333 56H39.6667C38.3787 56 37.3333 54.9547 37.3333 53.6667C37.3333 52.3787 38.3787 51.3333 39.6667 51.3333H44.3333C48.1927 51.3333 51.3333 48.1927 51.3333 44.3333V39.6667C51.3333 38.3787 52.3787 37.3333 53.6667 37.3333C54.9547 37.3333 56 38.3787 56 39.6667ZM56 11.6667V16.3333C56 17.6213 54.9547 18.6667 53.6667 18.6667C52.3787 18.6667 51.3333 17.6213 51.3333 16.3333V11.6667C51.3333 7.80733 48.1927 4.66667 44.3333 4.66667H39.6667C38.3787 4.66667 37.3333 3.62133 37.3333 2.33333C37.3333 1.04533 38.3787 0 39.6667 0H44.3333C50.7663 0 56 5.23367 56 11.6667ZM0 16.3333V11.6667C0 5.23367 5.23367 0 11.6667 0H16.3333C17.6213 0 18.6667 1.04533 18.6667 2.33333C18.6667 3.62133 17.6213 4.66667 16.3333 4.66667H11.6667C7.80733 4.66667 4.66667 7.80733 4.66667 11.6667V16.3333C4.66667 17.6213 3.62133 18.6667 2.33333 18.6667C1.04533 18.6667 0 17.6213 0 16.3333ZM37.3333 43.1667C37.3333 45.0987 35.7653 46.6667 33.8333 46.6667C31.9013 46.6667 30.3333 45.0987 30.3333 43.1667C30.3333 41.2347 31.9013 39.6667 33.8333 39.6667C35.7653 39.6667 37.3333 41.2347 37.3333 43.1667ZM43.1667 30.3333C45.0987 30.3333 46.6667 31.9013 46.6667 33.8333C46.6667 35.7653 45.0987 37.3333 43.1667 37.3333C41.2347 37.3333 39.6667 35.7653 39.6667 33.8333C39.6667 31.9013 41.2347 30.3333 43.1667 30.3333ZM30.3333 33.8333C30.3333 31.9013 31.9013 30.3333 33.8333 30.3333C35.7653 30.3333 37.3333 31.9013 37.3333 33.8333C37.3333 35.7653 35.7653 37.3333 33.8333 37.3333C31.9013 37.3333 30.3333 35.7653 30.3333 33.8333Z" fill="url(#paint0_linear_53_103)"/>
</g>
<defs>
<linearGradient id="paint0_linear_53_103" x1="28" y1="0" x2="28" y2="56" gradientUnits="userSpaceOnUse">
<stop stop-color="#EC48C1"/>
<stop offset="1" stop-color="#FED860"/>
</linearGradient>
<clipPath id="clip0_53_103">
<rect width="56" height="56" fill="white"/>
</clipPath>
</defs>
</svg>
